<?xml version="1.0" encoding="utf-8"?>
<!-- Generator: Adobe Illustrator 18.1.1, SVG Export Plug-In . SVG Version: 6.00 Build 0)  -->
<svg version="1.1" id="Layer_1" xmlns="http://www.w3.org/2000/svg" xmlns:xlink="http://www.w3.org/1999/xlink" x="0px" y="0px"
	 viewBox="0 0 60 60" enable-background="new 0 0 60 60" xml:space="preserve">
<path d="M56.9,21.7c0,0-0.1,0.1-0.1,0.1c-0.3,2.3-1.6,3.8-3.6,4.7c-0.8,0.3-1.6,0.4-2.4,0.4c-6.3,0-12.7,0-19,0
	c-7.5,0-12.9,0-20.5,0c-0.8,0-1.6-0.1-2.3-0.5c-0.7-0.4-1.3-0.9-1.8-1.6c-1.4-2.4-2.8-5.9-4.2-8.3c-0.2-0.3,0-0.6,0.4-0.6
	c0.1,0,0.2,0,0.3,0c2,0,5,0,7,0c0.2,0,0.3,0,0.5,0c0-0.2,0-0.3,0-0.4c0-1,0-3,0-4c0-0.6,0.1-0.8,0.8-0.8c6.7,0,11.2,0,17.9,0
	c2.5,0,4.9,0,7.4,0c0.1,0,0.2,0,0.3,0c0.4,0,0.5,0.2,0.5,0.5c0,1,0,3.1,0,4.2c0,0.1,0,0.3,0,0.4c0.3,0.1,3.4,0.1,4,0
	c0-0.1,0-0.3,0-0.5c0-2,0-5.1,0-7c0-0.1,0-0.2,0-0.3c0-0.4,0.2-0.5,0.5-0.5c1.2,0.1,2.4,0.1,3.6,0.2c1.2,0.1,2.3,0.1,3.5,0.2
	C50.6,8,51.4,8,52.2,8.1c0.4,0,0.5,0.1,0.5,0.6c0,1.9,0,4.8,0,6.7c0,0.1,0,0.3,0,0.5c0.2,0,0.3,0,0.5,0c1,0,2.1,0,3.1,0
	c0.3,0,0.5,0,0.6,0.3C56.9,17.6,56.9,20.2,56.9,21.7z M22,52.5c2.1,0,3.8-0.9,5.1-2.6c1.3,1.7,2.9,2.6,5,2.6c2.1,0,3.8-0.9,5.1-2.6
	c1.3,1.7,2.9,2.6,5.1,2.6c2.1,0,3.8-0.9,5.1-2.6c1.5,2.1,3.9,2.7,5,2.6c0-0.4,0-0.7,0-1.1c-2.1-0.1-3.6-1.1-4.5-2.9
	c-0.2,0-0.3,0-0.5,0c-0.4,0-0.5,0.1-0.7,0.4C44.7,52.1,40,52.2,38,49c-0.3-0.4-0.5-0.6-1-0.5c-0.2,0-0.4,0.1-0.5,0.3
	c0,0.1-0.1,0.2-0.1,0.2c-2,3.2-6.6,3.2-8.6-0.1c-0.2-0.3-0.4-0.5-0.8-0.4c0,0-0.1,0-0.1,0c-0.3-0.1-0.4,0.1-0.6,0.3
	c-0.9,1.6-2.3,2.5-4.2,2.6c-1.9,0.1-3.4-0.8-4.4-2.4c-0.2-0.4-0.5-0.6-0.9-0.5c-0.3,0-0.4,0.1-0.6,0.3c-0.8,1.3-1.9,2.2-3.4,2.5
	c-0.3,0.1-0.6,0.1-1,0.1c0,0.4,0,0.7,0,1.1c2.1-0.1,3.8-0.9,5-2.6C18.3,51.6,19.9,52.5,22,52.5z M22,40.4c2.1,0,3.8-0.9,5.1-2.6
	c1.3,1.7,2.9,2.6,5,2.6c2.1,0,3.8-0.9,5.1-2.6c1.3,1.7,2.9,2.6,5.1,2.6c2.1,0,3.8-0.9,5.1-2.6c1.5,2.1,3.9,2.7,5,2.6
	c0-0.4,0-0.7,0-1.1c-2.1-0.1-3.6-1.1-4.5-2.9c-0.2,0-0.3,0-0.5,0c-0.4,0-0.5,0.1-0.7,0.4c-1.9,3.3-6.6,3.4-8.6,0.1
	c-0.3-0.4-0.5-0.6-1-0.5c-0.2,0-0.4,0.1-0.5,0.3c0,0.1-0.1,0.2-0.1,0.2c-2,3.2-6.6,3.2-8.6-0.1c-0.2-0.3-0.4-0.5-0.8-0.4
	c0,0-0.1,0-0.1,0c-0.3-0.1-0.4,0.1-0.6,0.3c-0.9,1.6-2.3,2.5-4.2,2.6c-1.9,0.1-3.4-0.8-4.4-2.4c-0.2-0.4-0.5-0.6-0.9-0.5
	c-0.3,0-0.4,0.1-0.6,0.3c-0.8,1.3-1.9,2.2-3.4,2.5c-0.3,0.1-0.6,0.1-1,0.1c0,0.4,0,0.7,0,1.1c2.1-0.1,3.8-0.9,5-2.6
	C18.3,39.5,19.9,40.4,22,40.4z"/>
</svg>
