<?xml version="1.0" encoding="utf-8"?>
<!-- Generator: Adobe Illustrator 18.1.1, SVG Export Plug-In . SVG Version: 6.00 Build 0)  -->
<svg version="1.1" id="Layer_1" xmlns="http://www.w3.org/2000/svg" xmlns:xlink="http://www.w3.org/1999/xlink" x="0px" y="0px"
	 viewBox="0 0 60 60" enable-background="new 0 0 60 60" xml:space="preserve">
<path d="M32.7,5c0.1,0.1,0.3,0.2,0.4,0.2C35,6,35.8,6.8,37.5,7.6c0.3,0.1,0.6,0.2,0.8,0.2c1.9,0-0.2,0,1.8,0c0.4,0,0.7,0.1,1,0.4
	C41.4,8.5,41.7,8.8,42,9c0.3,0.2,0.4,0.5,0.4,0.9c0,2.1,0,4.1,0,6.2c0,0.4-0.1,0.6-0.3,0.9c-0.3,0.3-0.6,0.6-0.9,0.9
	c-0.2,0.3-0.5,0.4-0.9,0.4c-1.9,0,0.3,0-1.6,0c-0.5,0-0.9,0.1-1.3,0.3c-1.7,0.8-2.4,1.5-4.1,2.3c-0.4,0.2-0.7,0.2-1.1,0.2L28,21
	c-0.2,0-0.4,0-0.6,0c-0.1,0.1-0.1,0.1-0.1,0.1c-0.1,0.7-0.5,1.3-0.9,1.9c-0.9,1.4-0.8,2.9-0.2,4.4c0.1,0.2,0.2,0.5,0.2,0.8
	c0,0.7-0.4,1.1-1.1,1.1c-0.8,0-1.6,0-2.4,0c-0.2,0-0.3,0-0.5,0c-1,4.1-1.9,8.2-2.9,12.3c0.4,0.1,0.7,0.2,1,0.2
	c1.8,0.4,1.6,0.8,3.5,1.2c0.3,0.1,0.7,0.1,1.1,0.1c0.7,0,1.4,0,2.2,0c0.6,0,1.1,0.2,1.5,0.7c0.5,0.6,0.9,1.3,0.9,2.1
	c0,2.2,0,4.3,0,6.5c0,1.5-0.8,2.4-2.3,2.5c-0.1,0-0.3,0-0.4,0c-7.7,0-11.3,0-19,0c-0.4,0-0.7,0-1.1-0.1c-1.1-0.3-1.7-1.1-1.7-2.3
	c0-2.3,0-4.6,0-6.9c0-0.5,0-1.1,0-1.6c0-1.1,0.5-1.7,1.5-2c0.2-0.1,0.4-0.1,0.6-0.2c0.2-0.7,0.3-1.5,0.5-2.2
	c0.7-3.4,1.4-6.8,1.9-10.2c0.3-1.7,0.3-3.4-0.4-5c-0.4-1.1-1.1-2.1-2-2.9C7.2,21.3,7,21.1,6.8,21c-2-1-3.3-2.6-4-4.7
	C2.1,14,2.2,11.7,2.9,9.4c0.6-1.9,1.8-3.3,3.6-4.2c0.1,0,0.2-0.1,0.2-0.2C17.8,5,21.7,5,32.7,5z M57,12.2C56.8,12,56.6,12,56.4,12
	c-0.7,0-0.4,0-1.1,0c-0.2,0-0.4,0.1-0.6,0.2c-0.5,0.5-1,1-1.6,1.6c-0.1,0.1-0.1,0.1-0.2,0.3c0.3,0,0.4,0,0.6,0c1,0,1,0,2,0
	c1.3,0,1.3,0,2.1-1c0,0,0,0,0-0.1C57.4,12.7,57.2,12.5,57,12.2z M45.5,14c0.1,0,0.3-0.1,0.4-0.2c0.5-0.5,1-1,1.5-1.5
	c0.1-0.1,0.1-0.2,0.2-0.3c-1.6,0-2.2,0-3.7,0c0,0.1,0,0.2,0,0.3c0,0.5,0,1.1,0,1.7C44.8,14.1,44.6,14.1,45.5,14z M49.1,14.1
	c0.5,0,1.1,0,1.6,0c0.4-0.4,0.8-0.8,1.2-1.1c0.3-0.3,0.5-0.5,0.8-0.8C52.7,12,52.6,12,52.6,12c-0.8,0-1.7,0-2.5,0
	c-0.1,0-0.2,0-0.3,0.1c-0.6,0.6-1.2,1.2-1.9,1.9C48.3,14,48.7,14.1,49.1,14.1z"/>
</svg>
