<?xml version="1.0" standalone="no"?>
<!DOCTYPE svg PUBLIC "-//W3C//DTD SVG 20010904//EN"
 "http://www.w3.org/TR/2001/REC-SVG-20010904/DTD/svg10.dtd">
<svg version="1.0" xmlns="http://www.w3.org/2000/svg"
 width="260.000000pt" height="260.000000pt" viewBox="0 0 260.000000 260.000000"
 preserveAspectRatio="xMidYMid meet">
<metadata>
Created by potrace 1.11, written by Peter Selinger 2001-2013
</metadata>
<g transform="translate(0.000000,260.000000) scale(0.100000,-0.100000)"
fill="#000000" stroke="none">
<path d="M580 1654 c-180 -48 -305 -180 -365 -389 -35 -117 -28 -338 13 -470
50 -160 195 -288 373 -330 84 -19 272 -14 349 10 93 29 251 114 250 134 -1 3
-31 48 -69 98 -62 85 -69 91 -87 79 -59 -41 -119 -67 -184 -83 -41 -9 -141 -3
-178 13 -57 22 -106 82 -126 153 -9 31 -16 64 -16 73 0 13 41 15 346 14 190
-1 348 3 351 7 8 13 7 173 -1 237 -32 246 -179 420 -390 459 -81 15 -200 13
-266 -5z m238 -235 c54 -41 79 -96 88 -194 l6 -65 -186 0 -186 0 0 25 c0 77
39 182 82 223 43 40 150 46 196 11z"/>
<path d="M1740 1663 c-114 -17 -282 -64 -288 -81 -1 -5 13 -56 33 -113 19 -57
35 -105 35 -106 0 -1 21 5 48 13 154 48 309 59 364 27 53 -31 70 -64 76 -142
l4 -71 -103 -1 c-141 -1 -185 -6 -275 -34 -127 -39 -212 -113 -250 -216 -25
-67 -22 -199 6 -274 34 -90 112 -164 208 -194 63 -21 86 -23 166 -18 116 7
199 41 267 111 l46 48 22 -35 c26 -43 83 -81 151 -101 96 -28 94 -30 134 91
l36 107 -30 25 c-17 14 -34 40 -39 56 -4 17 -8 154 -8 306 -1 221 -4 288 -17
340 -47 184 -191 269 -454 266 -59 0 -118 -2 -132 -4z m268 -760 c3 -102 3
-102 -29 -138 -57 -65 -141 -89 -206 -58 -49 23 -67 58 -68 130 0 70 19 104
75 137 31 18 115 32 190 31 l35 -1 3 -101z"/>
</g>
</svg>
