<?xml version="1.0" encoding="utf-8"?>
<!-- Generator: Adobe Illustrator 19.2.1, SVG Export Plug-In . SVG Version: 6.00 Build 0)  -->
<svg version="1.1" id="Layer_1" xmlns="http://www.w3.org/2000/svg" xmlns:xlink="http://www.w3.org/1999/xlink" x="0px" y="0px"
	 viewBox="0 0 55 55" style="enable-background:new 0 0 55 55;" xml:space="preserve">
<g>
	<path d="M37.1,24.4c-0.6-1.4-1.5-2.7-2.6-3.9c-1.1-1.1-2.5-2-3.9-2.6l-1.7,1.7l-1.2,1.2l-1.2,1.2c-0.2,0.2-0.4,0.5-0.6,0.7
		c1.7,0.1,3.2,0.8,4.4,2c1.2,1.2,1.9,2.8,2,4.4c0.1,0.9,0,1.8-0.3,2.6c-0.3,0.9-0.8,1.8-1.6,2.6c0,0,0,0-0.1,0.1l-1.4,1.4l-2,2
		L25,39.7l-4.8,4.8c-1.3,1.3-3,2-4.8,2c-1.8,0-3.5-0.7-4.8-2c-1.3-1.3-2-3-2-4.8c0-1.8,0.7-3.5,2-4.8l4.8-4.8
		c-0.3-0.8-0.5-1.7-0.6-2.6c-0.1-0.7-0.1-1.3-0.2-2c0-1.2,0.1-2.4,0.4-3.6l-8.7,8.7c-5,5-5,13.2,0,18.2c2.5,2.5,5.8,3.8,9.1,3.8
		c3.3,0,6.6-1.3,9.1-3.8l8.7-8.7l1.3-1.3c0.7-0.7,1.4-1.6,1.9-2.4c0.8-1.3,1.4-2.8,1.7-4.3c0.1-0.8,0.2-1.6,0.2-2.3
		c0-1-0.1-1.9-0.3-2.9C37.7,26,37.4,25.2,37.1,24.4z"/>
	<path d="M48.7,6.3c-2.5-2.5-5.8-3.8-9.1-3.8c-3.3,0-6.6,1.3-9.1,3.8L21.9,15l-1.3,1.3c-0.7,0.7-1.4,1.6-1.9,2.4
		C17.9,20,17.3,21.5,17,23c-0.1,0.8-0.2,1.6-0.2,2.3c0,1,0.1,1.9,0.3,2.9c0.2,0.8,0.4,1.6,0.8,2.4c0.6,1.4,1.5,2.7,2.6,3.9
		c1.1,1.1,2.5,2,3.9,2.6l1.7-1.7l1.2-1.2l1.2-1.2c0.2-0.2,0.4-0.5,0.6-0.7c-1.7-0.1-3.2-0.8-4.4-2c-1.2-1.2-1.9-2.8-2-4.4
		c-0.1-0.9,0.1-1.8,0.3-2.6c0.3-0.9,0.8-1.8,1.6-2.6c0,0,0,0,0.1-0.1l1.4-1.4l2-2l1.8-1.8l4.8-4.8c1.3-1.3,3-2,4.8-2
		c1.8,0,3.5,0.7,4.8,2c2.7,2.7,2.7,7,0,9.7L39.7,25c0.3,0.9,0.5,1.7,0.6,2.6c0.1,0.7,0.1,1.3,0.2,2c0,1.2-0.1,2.4-0.4,3.6l8.7-8.7
		C53.8,19.4,53.8,11.3,48.7,6.3z"/>
</g>
</svg>