<?xml version="1.0" encoding="utf-8"?>
<!-- Generator: Adobe Illustrator 19.2.1, SVG Export Plug-In . SVG Version: 6.00 Build 0)  -->
<svg version="1.1" id="Layer_1" xmlns="http://www.w3.org/2000/svg" xmlns:xlink="http://www.w3.org/1999/xlink" x="0px" y="0px"
	 viewBox="0 0 55 55" style="enable-background:new 0 0 55 55;" xml:space="preserve">
<path d="M45.2,9.8c-4.7-4.7-11-7.3-17.7-7.3s-13,2.6-17.7,7.3c-4.7,4.7-7.3,11-7.3,17.7s2.6,13,7.3,17.7c4.7,4.7,11,7.3,17.7,7.3
	s13-2.6,17.7-7.3C54.9,35.4,54.9,19.6,45.2,9.8z M42.9,38.6l-7.1-7.1c3.1-2.2,6.8-3.5,10.7-3.6C46.4,31.7,45.2,35.5,42.9,38.6z
	 M31.6,35.8l7.1,7.1c-3.1,2.3-6.8,3.5-10.7,3.6C28,42.6,29.3,38.9,31.6,35.8z M45.7,22c-5.2,0.3-10.1,2.1-14.2,5.3l-3.8-3.8
	c3.2-4.1,5-9,5.3-14.2c3,0.9,5.7,2.5,7.9,4.8C43.2,16.4,44.8,19.1,45.7,22z M12.1,16.4l7.1,7.1c-3.1,2.2-6.8,3.5-10.7,3.6
	C8.6,23.2,9.9,19.5,12.1,16.4z M16.4,12.1c3.1-2.3,6.8-3.5,10.7-3.6c-0.1,3.9-1.4,7.6-3.6,10.7L16.4,12.1z M9.3,33
	c5.2-0.3,10.1-2.1,14.2-5.3l3.8,3.8c-3.2,4.1-5,9-5.3,14.2c-3-0.9-5.7-2.5-7.9-4.8C11.8,38.7,10.2,36,9.3,33z"/>
</svg>