<?xml version="1.0" encoding="utf-8"?>
<!-- Generator: Adobe Illustrator 21.1.0, SVG Export Plug-In . SVG Version: 6.00 Build 0)  -->
<svg version="1.1" id="Layer_1" xmlns="http://www.w3.org/2000/svg" xmlns:xlink="http://www.w3.org/1999/xlink" x="0px" y="0px"
	 viewBox="0 0 55 55" xml:space="preserve">
<g>
	<path d="M27.5,3.4c2.8,0,5.6,0,8.4,0c2.4,0,4.8,0.2,7.1,1.1c4.4,1.7,7.1,4.9,8,9.5c0.4,1.8,0.5,3.7,0.5,5.5c0.1,5.4,0,10.9,0,16.3
		c0,2.2-0.2,4.5-0.9,6.6C49.1,47.2,45.8,50,41,51c-1.8,0.4-3.7,0.5-5.5,0.5c-5.4,0.1-10.9,0-16.3,0c-2.2,0-4.4-0.2-6.5-0.9
		C7.8,49.1,5,45.8,4,40.9c-0.4-1.8-0.5-3.7-0.5-5.5c-0.1-5.4,0-10.9,0-16.3c0-2.4,0.2-4.8,1.1-7.2c1.7-4.4,4.9-7.1,9.5-8
		c1.9-0.4,3.8-0.5,5.8-0.5C22.4,3.4,24.9,3.4,27.5,3.4C27.5,3.4,27.5,3.4,27.5,3.4z M29,7.8c0,0,0,0.1,0,0.1c-3,0-5.9,0-8.9,0
		c-1.6,0-3.2,0.1-4.8,0.3c-3.5,0.6-5.9,2.5-6.8,6c-0.4,1.4-0.5,2.9-0.6,4.4c-0.1,2.4-0.1,4.9-0.1,7.3c0,2.3,0,4.6,0,6.9
		c0,2,0.1,4.1,0.3,6.1c0.2,1.8,0.7,3.4,1.8,4.8c1.8,2.2,4.2,3.1,7,3.2c3.1,0.2,6.2,0.2,9.3,0.2c2.9,0,5.8,0,8.7-0.1
		c1.6,0,3.2-0.1,4.7-0.3c3.6-0.6,6.1-2.6,6.9-6.3c0.3-1.3,0.5-2.7,0.5-4.1c0.1-2.7,0.1-5.3,0.1-8c0-2.1,0-4.3,0-6.4
		c0-2-0.1-4-0.3-5.9c-0.2-1.7-0.7-3.4-1.8-4.8C43.2,9,40.8,8.2,38,8C35,7.9,32,7.8,29,7.8z"/>
	<path d="M39.9,27.5c0,6.9-5.6,12.4-12.5,12.4c-6.9,0-12.4-5.6-12.4-12.4c0-6.9,5.6-12.4,12.5-12.4C34.4,15.1,39.9,20.7,39.9,27.5z
		 M35.5,27.6c0.1-4.3-3.6-8-7.9-8.1c-4.3,0-8,3.5-8,7.9c-0.1,4.3,3.6,8.1,7.9,8C31.9,35.5,35.3,32.1,35.5,27.6z"/>
	<path d="M43.3,14.7c0,1.6-1.3,2.9-2.9,2.9c-1.6,0-3-1.4-3-3c0-1.6,1.3-2.9,3-2.9C42,11.7,43.3,13,43.3,14.7z"/>
</g>
</svg>
