<?xml version="1.0" encoding="utf-8"?>
<!-- Generator: Adobe Illustrator 19.2.1, SVG Export Plug-In . SVG Version: 6.00 Build 0)  -->
<svg version="1.1" id="Layer_1" xmlns="http://www.w3.org/2000/svg" xmlns:xlink="http://www.w3.org/1999/xlink" x="0px" y="0px"
	 viewBox="0 0 55 55" style="enable-background:new 0 0 55 55;" xml:space="preserve">
<path d="M24.5,2.5c0,0.1,0,0.3,0,0.4c0,3.9,0,6.4,0,10.2c0,0.5,0,0.5,0.5,0.5c3.8,0,7.6,0,11.3,0c0.6,0,0.6,0,0.6,0.6
	c0,2.7,0,5.4,0,8.1c0,0.6,0,0.6-0.6,0.6c-3.7,0-7.5,0-11.2,0c-0.9,0-0.7,0-0.7,0.7c0,4.7,0,10.8,0,15.5c0,0.8,0,1.6,0.4,2.3
	c0.5,1,1.2,1.6,2.1,2.1c1.8,0.9,3.7,1,5.6,0.7c1.4-0.2,2.6-0.7,3.8-1.5c0.1-0.1,0.3-0.2,0.5-0.3c0,0.2,0,0.3,0,0.5
	c0,2.1,0,4.3,0,6.4c0,0.3-0.1,0.5-0.4,0.6c-2,0.9-4,1.6-6.2,2c-1.1,0.2-2.2,0.3-3.3,0.4c-0.2,0-0.4,0.1-0.6,0.1c-0.4,0-0.9,0-1.3,0
	c-0.2,0-0.3-0.1-0.5-0.1c-3.1-0.2-5.9-1.1-8.3-2.9c-1.4-1.1-2.6-2.4-3.1-4.1c-0.5-1.4-0.6-2.9-0.6-4.3c0-5.9,0-11.7,0-17.6
	c0-0.6,0-0.6-0.6-0.6c-1.8,0-3.7,0-5.5,0c-0.6,0-0.6,0-0.6-0.6c0-1.8,0-3.7,0-5.5c0-0.9,0-0.8,0.8-1.2c1.2-0.5,2.5-1,3.6-1.7
	c2.6-1.6,4.3-4.1,5.3-7c0.5-1.4,0.7-3,1-4.5C19.2,2.5,21.8,2.5,24.5,2.5z"/>
</svg>