<?xml version="1.0" encoding="utf-8"?>
<!-- Generator: Adobe Illustrator 19.2.1, SVG Export Plug-In . SVG Version: 6.00 Build 0)  -->
<svg version="1.1" id="Layer_1" xmlns="http://www.w3.org/2000/svg" xmlns:xlink="http://www.w3.org/1999/xlink" x="0px" y="0px"
	 viewBox="0 0 55 55" style="enable-background:new 0 0 55 55;" xml:space="preserve">
<path d="M17.5,39c-4.7-0.5-7.8-2.7-9.5-7c1.5-0.1,2.8-0.1,4.2-0.2C7.3,30,4.6,26.7,4.2,21.6c1.5,0.4,2.9,0.8,4.3,1.2
	C4.2,17.6,3.2,13,5.8,9c5.6,6.5,12.6,10.1,20.9,10.7c0.2-1.9,0.1-3.8,0.6-5.5C29.5,7,38.5,4.6,44,9.6c0.6,0.5,1.1,0.6,1.7,0.4
	c1.8-0.6,3.6-1.3,5.4-2c-0.7,2.2-2.2,3.8-3.9,5.4c1.7-0.5,3.4-0.9,5.1-1.4c0.1,0.1,0.1,0.1,0.2,0.2c-1.3,1.3-2.5,2.7-3.9,3.9
	c-0.8,0.7-1.1,1.3-1.1,2.3C47,30.5,41.8,39.7,31,45c-9.3,4.5-18.7,3.9-27.7-1.1c-0.2-0.1-0.3-0.2-0.8-0.5C8.1,43.7,13,42.4,17.5,39z
	"/>
</svg>